<svg xmlns="http://www.w3.org/2000/svg" viewBox="0 0 271.2 322.25"><defs><style>.cls-1{fill:#ff655d;}.cls-2{fill:#49fcd4;}.cls-3{fill:#fff;}.cls-4{fill:#ea904f;}.cls-5{fill:#ff4057;}.cls-6{fill:#480025;}</style></defs><title>logo 2</title><g id="Layer_2" data-name="Layer 2"><g id="Fill_objects" data-name="Fill objects"><path class="cls-1" d="M51.3,245.94a120.45,120.45,0,0,0,78,34.42V164.16l-78-81.58Z"/><path class="cls-1" d="M141.35,280.4a120.41,120.41,0,0,0,78.05-33.5V83.19l-78.05,81.58Z"/><path class="cls-2" d="M39.3,232.26V87.12a120.51,120.51,0,0,0,0,145.14Z"/><path class="cls-3" d="M129.35,146.8V39a120.34,120.34,0,0,0-73.9,30.54Z"/><path class="cls-3" d="M141.35,39V147.41L216,69.36A120.33,120.33,0,0,0,141.35,39Z"/><path class="cls-2" d="M231.4,85.81h0V233.57h0v-.63a120.58,120.58,0,0,0,0-146.49Z"/></g><g id="middle"><polygon class="cls-4" points="129.38 164.13 129.38 164.13 129.35 164.16 127.82 162.56 127.81 162.56 135.67 170.77 141.42 164.76 141.38 164.73 129.38 164.13"/><path class="cls-4" d="M231.49,86.62V63.17h0c-1.59-1.58-3.27-3.16-5-4.72l0,0-90.8,94.91L73.95,88.75,55.56,69.53h0L45.16,58.63l0,0,0,0c-1.87,1.68-3.65,3.37-5.29,5l-.29.3-.21.22h0V87.09h0V255.14h0l.21.22.29.3a137.29,137.29,0,0,0,11.5,10.28l.08.06V82.67l76.43,79.89,1.53,1.6,0,0h0l12,.61,0,0h0l78-81.49V266.78l.08-.06.3-.22.26-.2h0l.07-.05h0a137.48,137.48,0,0,0,11.37-10.08h0V232.77h0V86.62Z"/><path class="cls-5" d="M220,246.9H52c23.22,21.43,52.22,34.18,83.64,34.18s60.41-12.75,83.64-34.18Z"/><path class="cls-6" d="M231.9,63.71A135.44,135.44,0,0,0,141.85,24V0h-12V24a135.78,135.78,0,0,0-90,231.69h0a135.44,135.44,0,0,0,90,39.73v26.85h12V295.4a135.44,135.44,0,0,0,90.05-39.73v-.51a135.61,135.61,0,0,0,0-190.94ZM39.3,232.26a120.51,120.51,0,0,1,0-145.14Zm90,48.1a120.45,120.45,0,0,1-78-34.42V82.58l78,81.58Zm0-133.55L55.45,69.56A120.34,120.34,0,0,1,129.35,39ZM141.35,39A120.33,120.33,0,0,1,216,69.36l-74.68,78.05ZM219.4,246.9a120.41,120.41,0,0,1-78.05,33.5V164.77L219.4,83.19Zm36.8-87.21a120.23,120.23,0,0,1-24.8,73.25v.63h0V85.8h0v.63A120.23,120.23,0,0,1,256.2,159.69Z"/></g></g></svg>